<svg width="30" height="30" viewBox="0 0 30 30" fill="none" xmlns="http://www.w3.org/2000/svg">
<path d="M1 15C1 7.26801 7.26801 1 15 1C22.732 1 29 7.26801 29 15C29 22.732 22.732 29 15 29C7.26801 29 1 22.732 1 15Z" fill="#E1B168" stroke="#292E36" stroke-width="2"/>
<g clip-path="url(#clip0_2_284)">
<path d="M10.5212 19.5804C11.2225 19.2794 11.8346 18.822 12.3576 18.2081C12.8806 17.5941 13.1956 16.9682 13.3026 16.3302C13.362 15.9931 13.3918 15.7042 13.3918 15.4634C13.3918 15.1865 13.362 14.9578 13.3026 14.7773C12.7439 15.3671 12.0367 15.662 11.1809 15.662C10.325 15.662 9.62968 15.4093 9.09478 14.9037C8.55988 14.3981 8.29243 13.6999 8.29243 12.8091C8.29244 11.9664 8.57771 11.2802 9.14827 10.7506C9.70694 10.2209 10.4201 9.95605 11.2878 9.95605C12.4765 9.95605 13.3442 10.3894 13.891 11.2562C14.1406 11.6293 14.3367 12.0868 14.4794 12.6285C14.622 13.1822 14.6933 13.748 14.6933 14.3258C14.6933 15.5898 14.3724 16.7455 13.7305 17.7928C13.0887 18.8401 12.1318 19.6586 10.8599 20.2485L10.5212 19.5804ZM18.0454 19.5804C18.7467 19.2794 19.3588 18.822 19.8818 18.2081C20.4048 17.5941 20.7198 16.9682 20.8268 16.3302C20.8862 15.9931 20.916 15.7042 20.916 15.4634C20.916 15.1865 20.8862 14.9578 20.8268 14.7773C20.2681 15.3671 19.5609 15.662 18.7051 15.662C17.8492 15.662 17.1539 15.4093 16.619 14.9037C16.0841 14.3981 15.8166 13.6999 15.8166 12.8091C15.8166 11.9664 16.1019 11.2802 16.6724 10.7506C17.2311 10.2209 17.9443 9.95605 18.812 9.95605C20.0007 9.95605 20.8684 10.3894 21.4152 11.2562C21.6648 11.6293 21.8609 12.0868 22.0036 12.6285C22.1462 13.1822 22.2175 13.748 22.2175 14.3258C22.2175 15.5898 21.8966 16.7455 21.2547 17.7928C20.6128 18.8401 19.656 19.6586 18.3841 20.2485L18.0454 19.5804Z" fill="#292E36"/>
</g>
<defs>
<clipPath id="clip0_2_284">
<rect width="15" height="12" fill="white" transform="translate(8 9)"/>
</clipPath>
</defs>
</svg>
